<?xml version="1.0" encoding="utf-8"?>
<!-- Generator: Adobe Illustrator 26.5.0, SVG Export Plug-In . SVG Version: 6.00 Build 0)  -->
<svg version="1.1" id="Layer_1" xmlns="http://www.w3.org/2000/svg" xmlns:xlink="http://www.w3.org/1999/xlink" x="0px" y="0px"
	 viewBox="0 0 2500 2130.1" style="enable-background:new 0 0 2500 2130.1;" xml:space="preserve">
<style type="text/css">
	.st0{fill-rule:evenodd;clip-rule:evenodd;fill:#FFFFFF;}
	.st1{fill-rule:evenodd;clip-rule:evenodd;fill:#0077A6;}
	.st2{fill-rule:evenodd;clip-rule:evenodd;fill:#EBEBEB;}
</style>
<g>
	<path class="st0" d="M1404.6-172.8h2500v2485.2h-2500L1404.6-172.8L1404.6-172.8z"/>
	<path class="st1" d="M1514.7,2118.3h-7.1c0-3.6-1.8-8.8-1.8-10.6s0-5.3-5.4-5.3h-10.7v16h-5.4V2081h16.1c7.2,0,12.5,1.8,12.5,8.8
		c0,5.4-1.8,7.2-3.6,8.8c1.8,1.8,3.6,3.6,3.6,7.2v7.1c0,1.8,0,1.8,1.8,1.8V2118.3L1514.7,2118.3z M1507.5,2091.6
		c0-5.4-3.6-5.4-5.4-5.4h-12.5v10.6h10.7C1504,2097,1507.5,2095.1,1507.5,2091.6z M1538,2098.7c0-21.4-17.9-39.2-41.2-39.2
		c-21.5,0-39.4,17.8-39.4,39.2c0,23.2,17.9,41,39.4,41C1520.1,2139.6,1538,2121.8,1538,2098.7z M1532.6,2098.7
		c0,19.6-16.1,33.8-35.8,33.8s-34-14.2-34-33.8c0-17.8,14.3-33.8,34-33.8C1516.5,2064.9,1532.6,2080.9,1532.6,2098.7z
		 M3736.8,1380.2c0,53.4-34,78.2-94.8,78.2h-116.3V1405H3642c10.7,0,19.7-1.8,23.3-5.3c3.6-3.6,7.1-8.9,7.1-16
		c0-7.2-3.6-14.2-7.1-17.8c-3.6-3.6-10.7-5.4-21.5-5.4c-55.4-1.8-125.2,1.8-125.2-76.4c0-35.6,23.3-74.8,85.9-74.8h119.9v53.4
		h-110.9c-10.7,0-17.9,0-23.3,3.6c-5.4,5.4-8.9,10.6-8.9,19.6c0,8.9,5.4,14.2,12.5,17.8c7.2,1.8,14.3,3.6,23.3,3.6h32.2
		c34,0,55.5,7.1,69.8,19.6C3729.7,1339.2,3736.8,1355.3,3736.8,1380.2z M3484.6,1326.8c-14.3-12.4-35.8-19.6-69.8-19.6h-32.2
		c-8.9,0-16.1-1.8-23.3-3.6c-7.2-3.6-12.5-8.9-12.5-17.8c0-8.8,1.8-14.2,8.9-19.6c5.4-3.6,12.5-3.6,23.3-3.6h110.9v-53.4H3370
		c-64.4,0-85.9,39.2-85.9,74.8c0,78.2,69.8,74.7,125.3,76.4c10.7,0,17.9,1.8,21.5,5.4s7.2,10.6,7.2,17.8c0,7.1-3.6,12.4-7.2,16
		c-5.4,3.6-12.5,5.3-23.3,5.3h-116.3v53.4h116.3c60.8,0,94.8-24.9,94.8-78.2C3502.5,1355.3,3495.3,1339.2,3484.6,1326.8
		L3484.6,1326.8z M3255.5,1406.8h-141.3V1357H3252v-49.8h-137.8V1261h141.3v-51.6h-200.4v249h200.4V1406.8L3255.5,1406.8z
		 M2990.8,1221.9c-19.7-10.6-42.9-12.4-73.4-12.4h-137.8v249h60.8v-90.7h64.4c21.5,0,34,1.8,42.9,10.6
		c10.7,12.4,10.7,33.8,10.7,49.8v30.2h59v-48c0-23.2-1.8-33.8-8.9-46.2c-5.4-7.2-16.1-16-30.4-21.4c16.1-5.3,42.9-26.6,42.9-65.8
		C3021.2,1248.5,3010.4,1232.5,2990.8,1221.9z M2650.8,1209.4h-191.4l-76.9,81.8l-73.4-81.8h-241.5v249h238l76.9-81.8l73.4,81.8
		h116.3v-83.6h75.1c51.9,0,103.8-14.2,103.8-83.6C2751,1223.7,2697.3,1209.4,2650.8,1209.4L2650.8,1209.4z M2942.4,1312.6
		c-8.9,3.6-17.9,3.6-28.6,3.6l-73.4,1.8v-57h73.4c10.7,0,21.5,0,28.6,5.4c7.2,3.6,12.5,10.6,12.5,21.4
		C2954.9,1298.4,2949.6,1307.3,2942.4,1312.6z M2650.8,1325h-78.7v-64h78.7c21.5,0,35.8,8.9,35.8,30.2
		C2686.6,1312.6,2672.3,1325,2650.8,1325z M2420,1333.9l93-97.8v201L2420,1333.9z M2275.1,1406.8h-148.5V1357H2259v-49.8h-132.4
		V1261h150.3l66.2,73L2275.1,1406.8L2275.1,1406.8z M3570.4,1029.7h-85.9l-112.7-186.8v186.8h-121.6l-23.3-55.2h-125.2l-23.3,55.2
		h-69.8c-28.6,0-66.2-7.2-87.6-28.4c-19.7-21.4-30.4-49.8-30.4-94.2c0-37.4,5.4-71.2,32.2-97.8c17.9-19.6,50.1-28.4,91.2-28.4h57.2
		v53.4H3014c-21.5,0-34,3.6-46.5,14.2c-10.7,10.6-16.1,30.2-16.1,56.9c0,26.6,5.4,46.2,16.1,58.8c8.9,8.8,25.1,12.4,41.1,12.4h26.8
		l85.9-195.6h89.5l100.2,234.8V780.7h93l105.6,172.5V780.7h60.8L3570.4,1029.7L3570.4,1029.7L3570.4,1029.7z M2860.2,780.7h-60.8
		v249h60.8V780.7L2860.2,780.7z M2733.1,791.5c-19.7-10.6-41.1-10.6-71.6-10.6h-137.8v249h59v-90.8h64.4c21.5,0,35.8,1.8,44.7,10.6
		c10.7,12.4,8.9,33.8,8.9,48v32h60.8v-49.8c0-21.4-1.8-32-10.7-44.4c-5.4-7.2-16.1-16-28.6-21.4c16.1-7.2,42.9-26.6,42.9-65.8
		C2765.3,819.9,2752.8,803.9,2733.1,791.5L2733.1,791.5z M2480.8,978.2h-139.6v-49.8H2479v-51.6h-137.8v-44.4h139.6v-51.6h-200.4
		v249h200.4V978.2L2480.8,978.2z M2235.7,780.7h-98.4l-73.4,169l-78.7-169h-96.6v234.8l-102-234.8h-89.5l-107.4,249h64.4l23.3-55.2
		h125.2l23.3,55.2h121.7V834.1l87.7,195.6h51.9l87.7-195.6v195.6h60.8L2235.7,780.7L2235.7,780.7L2235.7,780.7z M3205.5,921.3
		l-41.2-97.8l-41.1,97.8H3205.5z M2686.6,882.1c-8.9,5.4-17.9,5.4-30.4,5.4h-73.4v-55.2h73.4c10.7,0,23.2,0,30.4,3.6
		c7.1,5.4,10.7,12.4,10.7,23.2C2697.3,869.8,2693.8,878.5,2686.6,882.1z M1699,921.3l41.2-97.8l41.2,97.8H1699z M3722.5,0H1588
		v896.4l73.4-165.4H1817l21.5,41v-41H2021l41.2,89l39.4-89H2683c26.8,0,50.1,5.4,68,19.6V731h159.2v19.6
		c26.8-14.2,60.8-19.6,100.2-19.6h230.8l21.5,41v-41h170l25.1,41v-41h166.4v348.6H3456l-32.2-53.4v53.4h-209.3l-23.3-56.9h-51.9
		l-23.3,56.9h-109.1c-42.9,0-75.2-10.6-96.6-21.4v21.4h-259.4v-80c0-10.6-1.8-12.4-8.9-12.4h-8.9v92.4h-501v-44.4l-17.9,44.4h-105.6
		l-17.9-42.6v42.6h-202.2l-21.5-56.9h-51.9l-23.3,56.9H1588v1051.1h2134.5v-638.5c-23.3,10.6-55.5,16-87.7,16h-155.7v-21.4
		c-17.9,14.2-50.1,21.4-80.5,21.4h-490.2v-80c0-10.6-1.8-10.6-10.7-10.6h-8.9v90.7h-161v-94.2c-26.8,12.4-57.2,12.4-84.1,12.4h-17.9
		v81.8H2429l-46.5-53.4l-51.9,53.4h-316.7v-348.6H2336l46.5,53.4l50.1-53.4H2649c25,0,66.2,3.6,84.1,21.4v-21.4h193.2
		c19.7,0,57.3,3.6,82.3,21.4v-21.4h291.6v21.4c16.1-14.2,46.5-21.4,73.4-21.4h162.8v21.4c17.9-12.4,42.9-21.4,75.2-21.4h110.9V0
		L3722.5,0z"/>
</g>
<rect class="st1" width="1615.3" height="2129.6"/>
<rect y="2129.6" class="st2" width="2499.3" height="182.8"/>
<rect x="0.3" y="-182.8" class="st2" width="2499.3" height="182.8"/>
</svg>
