<?xml version="1.0" encoding="utf-8"?>
<!-- Generator: Adobe Illustrator 26.5.0, SVG Export Plug-In . SVG Version: 6.00 Build 0)  -->
<svg version="1.1" id="Laag_1" xmlns="http://www.w3.org/2000/svg" xmlns:xlink="http://www.w3.org/1999/xlink" x="0px" y="0px"
	 viewBox="0 0 2000 1556" style="enable-background:new 0 0 2000 1556;" xml:space="preserve">
<style type="text/css">
	.st0{fill:#231F20;}
	.st1{fill:#F79410;}
	.st2{fill:#FF5F00;}
	.st3{fill:#EB001B;}
	.st4{fill:#F79E1B;}
</style>
<path class="st0" d="M1960.6,1534.9v4h3.7c0.7,0,1.4-0.2,2-0.5c0.5-0.3,0.8-0.9,0.8-1.5s-0.3-1.2-0.8-1.5c-0.6-0.4-1.3-0.5-2-0.5
	H1960.6L1960.6,1534.9z M1964.4,1532.1c1.6-0.1,3.2,0.4,4.5,1.3c1.1,0.9,1.6,2.2,1.6,3.5c0,1.2-0.4,2.3-1.3,3.1
	c-1,0.9-2.3,1.4-3.6,1.5l5,5.7h-3.8l-4.6-5.7h-1.5v5.7h-3.2v-15.1H1964.4L1964.4,1532.1z M1963.4,1552.4c1.7,0,3.4-0.3,4.9-1
	c1.5-0.6,2.8-1.6,4-2.7s2.1-2.5,2.7-4c1.3-3.2,1.3-6.7,0-9.9c-0.6-1.5-1.6-2.8-2.7-4c-1.2-1.1-2.5-2.1-4-2.7c-1.6-0.6-3.2-1-4.9-0.9
	c-1.7,0-3.4,0.3-5,0.9c-1.5,0.6-2.9,1.6-4.1,2.7c-3.6,3.7-4.7,9.2-2.7,14c0.6,1.5,1.5,2.9,2.7,4c1.2,1.2,2.6,2.1,4.1,2.7
	C1959.9,1552.2,1961.6,1552.5,1963.4,1552.4 M1963.4,1523.5c4.4,0,8.6,1.7,11.8,4.8c1.5,1.5,2.7,3.2,3.5,5.2c1.7,4,1.7,8.6,0,12.7
	c-0.8,1.9-2,3.7-3.5,5.2s-3.3,2.7-5.3,3.5c-2,0.9-4.3,1.3-6.5,1.3c-2.3,0-4.5-0.4-6.6-1.3c-2-0.8-3.8-2-5.3-3.5s-2.7-3.4-3.5-5.4
	c-1.7-4-1.7-8.6,0-12.7c0.8-1.9,2-3.7,3.5-5.2s3.3-2.7,5.3-3.5c2.1-0.9,4.3-1.3,6.6-1.3 M432.2,1465.1c0-28.8,18.9-52.6,49.8-52.6
	c29.5,0,49.4,22.7,49.4,52.6s-19.9,52.6-49.4,52.6C451.1,1517.7,432.2,1494,432.2,1465.1 M565,1465.1V1383h-35.7v20
	c-11.3-14.8-28.5-24.1-51.8-24.1c-46,0-82.1,36.1-82.1,86.2s36.1,86.2,82.1,86.2c23.3,0,40.5-9.3,51.8-24.1v19.9H565V1465.1
	L565,1465.1z M1771,1465.1c0-28.8,18.9-52.6,49.8-52.6c29.6,0,49.4,22.7,49.4,52.6s-19.9,52.6-49.4,52.6
	C1789.9,1517.7,1771,1494,1771,1465.1 M1903.9,1465.1v-148h-35.7v85.9c-11.3-14.8-28.5-24.1-51.8-24.1c-46,0-82.1,36.1-82.1,86.2
	s36.1,86.2,82.1,86.2c23.3,0,40.5-9.3,51.8-24.1v19.9h35.7V1465.1z M1008,1410.9c23,0,37.8,14.4,41.5,39.8h-85.2
	C968.2,1427,982.6,1410.9,1008,1410.9 M1008.7,1378.9c-48.1,0-81.8,35-81.8,86.2c0,52.2,35,86.2,84.1,86.2c24.7,0,47.4-6.2,67.3-23
	l-17.5-26.4c-13.8,11-31.3,17.2-47.8,17.2c-23,0-43.9-10.7-49.1-40.2h121.9c0.3-4.4,0.7-8.9,0.7-13.7
	C1086.3,1413.9,1054.6,1378.9,1008.7,1378.9 M1439.6,1465c0-28.8,18.9-52.6,49.8-52.6c29.5,0,49.4,22.7,49.4,52.6
	s-19.9,52.6-49.4,52.6C1458.5,1517.6,1439.6,1493.9,1439.6,1465 M1572.5,1465v-82h-35.7v20c-11.4-14.8-28.5-24.1-51.8-24.1
	c-46,0-82.1,36.1-82.1,86.2s36.1,86.2,82.1,86.2c23.3,0,40.5-9.3,51.8-24.1v19.9h35.7V1465L1572.5,1465z M1238,1465
	c0,49.8,34.7,86.2,87.6,86.2c24.7,0,41.2-5.5,59-19.6l-17.1-28.8c-13.4,9.6-27.5,14.8-43,14.8c-28.5-0.3-49.4-20.9-49.4-52.6
	s20.9-52.2,49.4-52.6c15.5,0,29.6,5.2,43,14.8l17.1-28.8c-17.8-14.1-34.3-19.6-59-19.6C1272.7,1378.9,1238,1415.2,1238,1465
	 M1698.1,1378.9c-20.6,0-34,9.6-43.3,24.1v-20h-35.4v164.1h35.7v-92c0-27.2,11.7-42.2,35-42.2c7.6-0.1,15.2,1.3,22.3,4.1l11-33.6
	C1715.7,1380.2,1705.4,1378.9,1698.1,1378.9 M741.5,1396.1c-17.2-11.3-40.8-17.2-66.9-17.2c-41.6,0-68.3,19.9-68.3,52.5
	c0,26.8,19.9,43.3,56.6,48.4l16.9,2.4c19.6,2.8,28.8,7.9,28.8,17.2c0,12.7-13,19.9-37.4,19.9c-24.7,0-42.6-7.9-54.6-17.2l-16.8,27.8
	c19.6,14.4,44.3,21.3,71.1,21.3c47.4,0,74.9-22.3,74.9-53.6c0-28.8-21.6-43.9-57.3-49.1l-16.8-2.4c-15.5-2-27.8-5.1-27.8-16.1
	c0-12,11.7-19.2,31.2-19.2c21,0,41.2,7.9,51.2,14.1L741.5,1396.1L741.5,1396.1z M1202,1378.9c-20.6,0-34,9.6-43.2,24.1v-20h-35.4
	v164.1h35.7v-92c0-27.2,11.7-42.2,35-42.2c7.6-0.1,15.2,1.3,22.3,4.1l11-33.6C1219.5,1380.2,1209.2,1378.9,1202,1378.9 M897.4,1383
	H839v-49.8h-36v49.8h-33.3v32.6H803v74.9c0,38.1,14.8,60.8,57,60.8c15.5,0,33.3-4.8,44.7-12.7l-10.3-30.6
	c-10.7,6.2-22.3,9.3-31.6,9.3c-17.8,0-23.7-11-23.7-27.5v-74.2h58.4L897.4,1383z M363.9,1547.2v-103c0-38.8-24.7-64.9-64.6-65.2
	c-21-0.3-42.6,6.2-57.7,29.2c-11.3-18.2-29.2-29.2-54.2-29.2c-17.5,0-34.7,5.2-48.1,24.4V1383h-35.7v164.1h36v-91
	c0-28.5,15.8-43.6,40.2-43.6c23.7,0,35.7,15.4,35.7,43.3v91.3h36.1v-91c0-28.5,16.5-43.6,40.2-43.6c24.4,0,36,15.4,36,43.3v91.3
	L363.9,1547.2z"/>
<path class="st1" d="M1980.9,1001.2v-24h-6.2l-7.2,16.5l-7.2-16.5h-6.3v24h4.4v-18.1l6.8,15.6h4.6l6.8-15.6v18.1H1980.9
	L1980.9,1001.2z M1941.3,1001.2v-19.9h8v-4h-20.4v4h8v19.9H1941.3L1941.3,1001.2z"/>
<path class="st2" d="M1270.6,1104.2H729.7v-972h540.9L1270.6,1104.2z"/>
<path class="st3" d="M764,618.2c0-197.2,92.3-372.8,236.1-486C891.3,46.4,756.7-0.2,618.1,0C276.7,0,0,276.8,0,618.2
	s276.7,618.2,618.1,618.2c138.6,0.2,273.2-46.4,382-132.2C856.3,991,764,815.3,764,618.2"/>
<path class="st4" d="M2000.2,618.2c0,341.4-276.7,618.2-618.1,618.2c-138.6,0.2-273.2-46.4-382-132.2
	c143.8-113.2,236.1-288.8,236.1-486s-92.3-372.8-236.1-486C1108.9,46.4,1243.6-0.2,1382.2,0C1723.5,0,2000.2,276.8,2000.2,618.2"/>
</svg>
