<?xml version="1.0" encoding="utf-8"?>
<!-- Generator: Adobe Illustrator 26.5.0, SVG Export Plug-In . SVG Version: 6.00 Build 0)  -->
<svg version="1.1" id="Layer_1" xmlns="http://www.w3.org/2000/svg" xmlns:xlink="http://www.w3.org/1999/xlink" x="0px" y="0px"
	 viewBox="0 0 517.7 665" style="enable-background:new 0 0 517.7 665;" xml:space="preserve">
<style type="text/css">
	.st0{fill:#253B80;}
	.st1{fill:#179BD7;}
	.st2{fill:#222D65;}
</style>
<path class="st0" d="M147.5,616.9l10.6-67.2l-23.6-0.5H22l78.2-495.7c0.5-3.1,3.2-5.4,6.3-5.4h189.7c63,0,106.4,13.1,129.1,39
	c10.6,12.1,17.4,24.8,20.7,38.8c3.4,14.6,3.5,32.1,0.1,53.5l-0.2,1.6v13.7l10.6,6c8.1,4.1,15.4,9.7,21.5,16.4
	c9.1,10.4,15,23.6,17.5,39.2c2.6,16.1,1.7,35.2-2.5,56.9c-4.9,24.9-12.7,46.6-23.3,64.4c-9.3,15.9-21.9,29.7-36.9,40.4
	c-14.1,10-30.8,17.6-49.7,22.4c-18.3,4.8-39.2,7.2-62.1,7.2h-14.8c-10.6,0-20.8,3.8-28.9,10.6c-8,6.9-13.4,16.4-15,26.9l-1.1,6
	l-18.7,118.4l-0.8,4.3c-0.2,1.4-0.6,2.1-1.2,2.5c-0.5,0.4-1.2,0.7-1.9,0.7L147.5,616.9z"/>
<path class="st1" d="M466.6,182.4c-0.6,3.6-1.2,7.3-1.9,11.1c-25,128.4-110.6,172.8-219.9,172.8h-55.6c-13.4,0-24.6,9.7-26.7,22.9
	L134,569.9l-8.1,51.2c-1.2,7.8,4.1,15.1,11.8,16.3c0.7,0.1,1.5,0.2,2.2,0.2h98.7c11.7,0,21.6-8.5,23.5-20l1-5l18.6-117.9l1.2-6.5
	c1.8-11.6,11.8-20.1,23.5-20.1H321c95.6,0,170.5-38.8,192.4-151.2c9.1-46.9,4.4-86.1-19.8-113.7C486,194.7,476.8,187.7,466.6,182.4
	L466.6,182.4z"/>
<path class="st2" d="M440.4,172c-8-2.3-16.1-4.1-24.3-5.4c-16.2-2.5-32.6-3.7-49.1-3.6H218.4c-11.7,0-21.6,8.5-23.4,20.1
	l-31.6,200.3l-0.9,5.8c2-13.2,13.4-22.9,26.7-22.9h55.6c109.3,0,194.9-44.4,219.9-172.8c0.7-3.8,1.4-7.5,1.9-11.1
	c-6.6-3.5-13.5-6.4-20.6-8.7C444.2,173.1,442.3,172.5,440.4,172L440.4,172z"/>
<path class="st0" d="M195,183.1c1.8-11.6,11.7-20.1,23.4-20h148.7c17.6,0,34.1,1.2,49.1,3.6c10.2,1.6,20.2,4,29.9,7.1
	c7.4,2.4,14.2,5.3,20.6,8.7c7.4-47.5-0.1-79.8-25.7-109c-28.3-32.2-79.3-46-144.7-46H106.5c-13.3,0-24.7,9.7-26.8,22.9l-79,500.8
	c-1.4,8.9,4.7,17.2,13.6,18.6c0.8,0.1,1.7,0.2,2.5,0.2h117.1l29.4-186.5L195,183.1z"/>
</svg>
