<svg xmlns="http://www.w3.org/2000/svg" xmlns:xlink="http://www.w3.org/1999/xlink" width="113" height="50"><defs><path id="A" d="M0 49.808h112.044V.048H0z"/></defs><g fill-rule="evenodd"><path fill="red" d="M62.295 49.948h49.808V.14H62.295z"/><path d="M98.914 22.6H102V6.875h-3.087zm-19.897-5.25a5.24 5.24 0 1 1-10.482 0V6.856h3.15V17.34c0 1.156.932 2.098 2.094 2.098s2.086-.942 2.086-2.098V6.856h3.15V17.34zM93.694 43h-10.48V27.283h3.143v12.57h7.337zm0-20.425h-3.146l-4.2-8.983v8.983h-3.143V6.857h3.143l4.2 8.982V6.857h3.146zM75.867 37.767c0 1.145-.926 2.087-2.086 2.087s-2.094-.942-2.094-2.087V32.53a2.09 2.09 0 0 1 2.094-2.095c1.16 0 2.086.934 2.086 2.095v5.236zM73.78 27.283c-2.903 0-5.245 2.35-5.245 5.248v5.236c0 2.887 2.343 5.232 5.245 5.232a5.13 5.13 0 0 0 1.013-.089l1.073 3.242h3.15l-1.556-4.665a5.21 5.21 0 0 0 1.556-3.72V32.53c0-2.898-2.344-5.248-5.237-5.248zm28.828 10.484a2.1 2.1 0 0 1-2.095 2.087c-1.16 0-2.098-.942-2.098-2.087V32.53c0-1.16.938-2.095 2.098-2.095 1.152 0 2.095.934 2.095 2.095v5.236zm-2.095-10.484c-2.895 0-5.25 2.35-5.25 5.248v5.236c0 2.887 2.355 5.232 5.25 5.232a5.24 5.24 0 0 0 5.24-5.232V32.53c0-2.898-2.347-5.248-5.24-5.248z" fill="#fefefe"/><mask id="B" fill="#fff"><use xlink:href="#A"/></mask><path fill="red" mask="url(#B)" d="M0 49.808h49.797V.048H0z"/><path mask="url(#B)" d="M28.3 22.043h14.14v-3.136H28.3zm1.58-12.046h11v-3.14h-11zm-11.53-3.14H8.905v3.14h6.293v8.9H7.346v3.136H21.5v-3.136h-3.14zm13.096 32.997h7.86V30.95h-7.86v8.903zM28.3 27.802V43h14.14V27.802H28.3zm-19.395 0l-1.6 7.606h3.138l.95-4.457h6.3l-1.85 8.902H6.396L5.762 43h12.6l3.14-15.196z" fill="#fefefe"/></g></svg>