<?xml version="1.0" encoding="utf-8"?>
<!-- Generator: Adobe Illustrator 26.5.0, SVG Export Plug-In . SVG Version: 6.00 Build 0)  -->
<svg version="1.1" id="Layer_1" xmlns="http://www.w3.org/2000/svg" xmlns:xlink="http://www.w3.org/1999/xlink" x="0px" y="0px"
	 viewBox="0 0 2500 812" style="enable-background:new 0 0 2500 812;" xml:space="preserve">
<style type="text/css">
	.st0{fill:#1434CB;}
</style>
<path class="st0" d="M1628.3,1c-177.5,0-336.1,92-336.1,262c0,194.9,281.3,208.4,281.3,306.3c0,41.2-47.3,78.2-128,78.2
	c-114.5,0-200.2-51.6-200.2-51.6l-36.6,171.5c0,0,98.6,43.6,229.6,43.6c194.1,0,346.8-96.5,346.8-269.4c0-206-282.5-219.1-282.5-310
	c0-32.3,38.8-67.7,119.3-67.7c90.8,0,164.9,37.5,164.9,37.5l35.9-165.7C1822.6,35.8,1742,1,1628.3,1z M4.3,13.5L0,38.5
	c0,0,74.7,13.7,141.9,40.9c86.6,31.3,92.8,49.5,107.4,106l158.9,612.7h213.1L949.5,13.5H736.9L526,547L440,94.8
	c-7.9-51.8-47.9-81.3-96.8-81.3H4.3z M1035,13.5L868.2,798.1h202.7l166.2-784.6H1035L1035,13.5z M2165.5,13.5
	c-48.9,0-74.8,26.2-93.8,71.9l-297,712.7h212.6l41.1-118.8h259l25,118.8H2500L2336.4,13.5H2165.5z M2193.2,225.5l63,294.4h-168.8
	L2193.2,225.5z"/>
</svg>
